<mxfile host="app.diagrams.net" agent="Mozilla/5.0 (Windows NT 10.0; Win64; x64) AppleWebKit/537.36 (KHTML, like Gecko) Chrome/128.0.0.0 Safari/537.36" version="24.7.12">
  <diagram name="페이지-1" id="xKSKxvpEyDotGAsIb_pm">
    <mxGraphModel dx="1834" dy="1230" grid="0" gridSize="10" guides="1" tooltips="1" connect="1" arrows="1" fold="1" page="0" pageScale="1" pageWidth="827" pageHeight="1169" math="0" shadow="0">
      <root>
        <mxCell id="0" />
        <mxCell id="1" parent="0" />
        <mxCell id="MyHgY1KvTSDvr6oZdd5r-1" value="입출고 담당자" style="shape=umlActor;verticalLabelPosition=bottom;verticalAlign=top;html=1;outlineConnect=0;" vertex="1" parent="1">
          <mxGeometry x="-254" y="-55" width="30" height="60" as="geometry" />
        </mxCell>
        <mxCell id="MyHgY1KvTSDvr6oZdd5r-16" style="edgeStyle=none;curved=1;rounded=0;orthogonalLoop=1;jettySize=auto;html=1;exitX=1;exitY=0.5;exitDx=0;exitDy=0;entryX=0;entryY=0.5;entryDx=0;entryDy=0;fontSize=12;startSize=8;endSize=8;dashed=1;" edge="1" parent="1" source="MyHgY1KvTSDvr6oZdd5r-2" target="MyHgY1KvTSDvr6oZdd5r-11">
          <mxGeometry relative="1" as="geometry" />
        </mxCell>
        <mxCell id="MyHgY1KvTSDvr6oZdd5r-17" value="&amp;lt;&amp;lt;include&amp;gt;&amp;gt;" style="edgeLabel;html=1;align=center;verticalAlign=middle;resizable=0;points=[];fontSize=12;" vertex="1" connectable="0" parent="MyHgY1KvTSDvr6oZdd5r-16">
          <mxGeometry x="0.2405" y="1" relative="1" as="geometry">
            <mxPoint x="-19" y="-42" as="offset" />
          </mxGeometry>
        </mxCell>
        <mxCell id="MyHgY1KvTSDvr6oZdd5r-2" value="신제품 입고" style="ellipse;whiteSpace=wrap;html=1;" vertex="1" parent="1">
          <mxGeometry x="-76" y="-198" width="120" height="80" as="geometry" />
        </mxCell>
        <mxCell id="MyHgY1KvTSDvr6oZdd5r-18" style="edgeStyle=none;curved=1;rounded=0;orthogonalLoop=1;jettySize=auto;html=1;exitX=1;exitY=0.5;exitDx=0;exitDy=0;entryX=0;entryY=0.5;entryDx=0;entryDy=0;fontSize=12;startSize=8;endSize=8;dashed=1;" edge="1" parent="1" source="MyHgY1KvTSDvr6oZdd5r-3" target="MyHgY1KvTSDvr6oZdd5r-11">
          <mxGeometry relative="1" as="geometry" />
        </mxCell>
        <mxCell id="MyHgY1KvTSDvr6oZdd5r-19" value="&amp;lt;&amp;lt;include&amp;gt;&amp;gt;" style="edgeLabel;html=1;align=center;verticalAlign=middle;resizable=0;points=[];fontSize=12;" vertex="1" connectable="0" parent="MyHgY1KvTSDvr6oZdd5r-18">
          <mxGeometry x="-0.1525" y="-3" relative="1" as="geometry">
            <mxPoint as="offset" />
          </mxGeometry>
        </mxCell>
        <mxCell id="MyHgY1KvTSDvr6oZdd5r-3" value="고객 반품 입고" style="ellipse;whiteSpace=wrap;html=1;" vertex="1" parent="1">
          <mxGeometry x="-76" y="-99" width="120" height="80" as="geometry" />
        </mxCell>
        <mxCell id="MyHgY1KvTSDvr6oZdd5r-4" value="업체 반품 출고" style="ellipse;whiteSpace=wrap;html=1;" vertex="1" parent="1">
          <mxGeometry x="-76" width="120" height="80" as="geometry" />
        </mxCell>
        <mxCell id="MyHgY1KvTSDvr6oZdd5r-21" style="edgeStyle=none;curved=1;rounded=0;orthogonalLoop=1;jettySize=auto;html=1;exitX=1;exitY=0.5;exitDx=0;exitDy=0;entryX=0;entryY=0.5;entryDx=0;entryDy=0;fontSize=12;startSize=8;endSize=8;dashed=1;" edge="1" parent="1" source="MyHgY1KvTSDvr6oZdd5r-5" target="MyHgY1KvTSDvr6oZdd5r-11">
          <mxGeometry relative="1" as="geometry" />
        </mxCell>
        <mxCell id="MyHgY1KvTSDvr6oZdd5r-23" value="&amp;lt;&amp;lt;include&amp;gt;&amp;gt;" style="edgeLabel;html=1;align=center;verticalAlign=middle;resizable=0;points=[];fontSize=12;" vertex="1" connectable="0" parent="MyHgY1KvTSDvr6oZdd5r-21">
          <mxGeometry x="-0.1534" y="1" relative="1" as="geometry">
            <mxPoint x="1" as="offset" />
          </mxGeometry>
        </mxCell>
        <mxCell id="MyHgY1KvTSDvr6oZdd5r-5" value="상품 출고" style="ellipse;whiteSpace=wrap;html=1;" vertex="1" parent="1">
          <mxGeometry x="-76" y="99" width="120" height="80" as="geometry" />
        </mxCell>
        <mxCell id="MyHgY1KvTSDvr6oZdd5r-11" value="현황 등록" style="ellipse;whiteSpace=wrap;html=1;" vertex="1" parent="1">
          <mxGeometry x="168" y="-75" width="120" height="80" as="geometry" />
        </mxCell>
        <mxCell id="MyHgY1KvTSDvr6oZdd5r-12" value="" style="endArrow=none;html=1;rounded=0;fontSize=12;startSize=8;endSize=8;curved=1;entryX=0;entryY=0.425;entryDx=0;entryDy=0;entryPerimeter=0;exitX=0.5;exitY=0.5;exitDx=0;exitDy=0;exitPerimeter=0;" edge="1" parent="1" source="MyHgY1KvTSDvr6oZdd5r-1" target="MyHgY1KvTSDvr6oZdd5r-2">
          <mxGeometry width="50" height="50" relative="1" as="geometry">
            <mxPoint x="-159" y="-72" as="sourcePoint" />
            <mxPoint x="-109" y="-122" as="targetPoint" />
          </mxGeometry>
        </mxCell>
        <mxCell id="MyHgY1KvTSDvr6oZdd5r-13" value="" style="endArrow=none;html=1;rounded=0;fontSize=12;startSize=8;endSize=8;curved=1;entryX=0;entryY=0.5;entryDx=0;entryDy=0;exitX=0.5;exitY=0.5;exitDx=0;exitDy=0;exitPerimeter=0;" edge="1" parent="1" source="MyHgY1KvTSDvr6oZdd5r-1" target="MyHgY1KvTSDvr6oZdd5r-3">
          <mxGeometry width="50" height="50" relative="1" as="geometry">
            <mxPoint x="-281" y="201" as="sourcePoint" />
            <mxPoint x="-118" y="62" as="targetPoint" />
          </mxGeometry>
        </mxCell>
        <mxCell id="MyHgY1KvTSDvr6oZdd5r-14" value="" style="endArrow=none;html=1;rounded=0;fontSize=12;startSize=8;endSize=8;curved=1;entryX=0;entryY=0.5;entryDx=0;entryDy=0;exitX=0.5;exitY=0.5;exitDx=0;exitDy=0;exitPerimeter=0;" edge="1" parent="1" source="MyHgY1KvTSDvr6oZdd5r-1" target="MyHgY1KvTSDvr6oZdd5r-4">
          <mxGeometry width="50" height="50" relative="1" as="geometry">
            <mxPoint x="-257" y="89" as="sourcePoint" />
            <mxPoint x="-94" y="55" as="targetPoint" />
          </mxGeometry>
        </mxCell>
        <mxCell id="MyHgY1KvTSDvr6oZdd5r-15" value="" style="endArrow=none;html=1;rounded=0;fontSize=12;startSize=8;endSize=8;curved=1;entryX=0;entryY=0.5;entryDx=0;entryDy=0;exitX=0.5;exitY=0.5;exitDx=0;exitDy=0;exitPerimeter=0;" edge="1" parent="1" source="MyHgY1KvTSDvr6oZdd5r-1" target="MyHgY1KvTSDvr6oZdd5r-5">
          <mxGeometry width="50" height="50" relative="1" as="geometry">
            <mxPoint x="-256" y="54" as="sourcePoint" />
            <mxPoint x="-93" y="119" as="targetPoint" />
          </mxGeometry>
        </mxCell>
        <mxCell id="MyHgY1KvTSDvr6oZdd5r-20" style="edgeStyle=none;curved=1;rounded=0;orthogonalLoop=1;jettySize=auto;html=1;exitX=1;exitY=0.5;exitDx=0;exitDy=0;entryX=0;entryY=0.488;entryDx=0;entryDy=0;entryPerimeter=0;fontSize=12;startSize=8;endSize=8;dashed=1;" edge="1" parent="1" source="MyHgY1KvTSDvr6oZdd5r-4" target="MyHgY1KvTSDvr6oZdd5r-11">
          <mxGeometry relative="1" as="geometry" />
        </mxCell>
        <mxCell id="MyHgY1KvTSDvr6oZdd5r-22" value="&amp;lt;&amp;lt;include&amp;gt;&amp;gt;" style="edgeLabel;html=1;align=center;verticalAlign=middle;resizable=0;points=[];fontSize=12;" vertex="1" connectable="0" parent="MyHgY1KvTSDvr6oZdd5r-20">
          <mxGeometry x="-0.1818" y="-2" relative="1" as="geometry">
            <mxPoint x="1" as="offset" />
          </mxGeometry>
        </mxCell>
        <mxCell id="MyHgY1KvTSDvr6oZdd5r-24" value="현황 관리 담당자" style="shape=umlActor;verticalLabelPosition=bottom;verticalAlign=top;html=1;outlineConnect=0;" vertex="1" parent="1">
          <mxGeometry x="-254" y="340" width="30" height="60" as="geometry" />
        </mxCell>
        <mxCell id="MyHgY1KvTSDvr6oZdd5r-25" value="현황 조회" style="ellipse;whiteSpace=wrap;html=1;" vertex="1" parent="1">
          <mxGeometry x="-75" y="242.5" width="120" height="80" as="geometry" />
        </mxCell>
        <mxCell id="MyHgY1KvTSDvr6oZdd5r-26" value="납품 업체 주문" style="ellipse;whiteSpace=wrap;html=1;" vertex="1" parent="1">
          <mxGeometry x="-78" y="330" width="120" height="80" as="geometry" />
        </mxCell>
        <mxCell id="MyHgY1KvTSDvr6oZdd5r-27" value="현황 반영" style="ellipse;whiteSpace=wrap;html=1;" vertex="1" parent="1">
          <mxGeometry x="-77" y="417.5" width="120" height="80" as="geometry" />
        </mxCell>
        <mxCell id="MyHgY1KvTSDvr6oZdd5r-28" value="쇼핑몰 시스템" style="shape=umlActor;verticalLabelPosition=bottom;verticalAlign=top;html=1;outlineConnect=0;" vertex="1" parent="1">
          <mxGeometry x="188" y="340" width="30" height="60" as="geometry" />
        </mxCell>
        <mxCell id="MyHgY1KvTSDvr6oZdd5r-29" value="" style="endArrow=none;html=1;rounded=0;fontSize=12;startSize=8;endSize=8;curved=1;entryX=0;entryY=0.5;entryDx=0;entryDy=0;exitX=0.5;exitY=0.5;exitDx=0;exitDy=0;exitPerimeter=0;" edge="1" parent="1" source="MyHgY1KvTSDvr6oZdd5r-24" target="MyHgY1KvTSDvr6oZdd5r-25">
          <mxGeometry width="50" height="50" relative="1" as="geometry">
            <mxPoint x="-263" y="113" as="sourcePoint" />
            <mxPoint x="-100" y="277" as="targetPoint" />
          </mxGeometry>
        </mxCell>
        <mxCell id="MyHgY1KvTSDvr6oZdd5r-30" value="" style="endArrow=none;html=1;rounded=0;fontSize=12;startSize=8;endSize=8;curved=1;entryX=0;entryY=0.5;entryDx=0;entryDy=0;exitX=0.5;exitY=0.5;exitDx=0;exitDy=0;exitPerimeter=0;" edge="1" parent="1" source="MyHgY1KvTSDvr6oZdd5r-24" target="MyHgY1KvTSDvr6oZdd5r-26">
          <mxGeometry width="50" height="50" relative="1" as="geometry">
            <mxPoint x="-263" y="469.5" as="sourcePoint" />
            <mxPoint x="-99" y="382.5" as="targetPoint" />
          </mxGeometry>
        </mxCell>
        <mxCell id="MyHgY1KvTSDvr6oZdd5r-31" value="" style="endArrow=none;html=1;rounded=0;fontSize=12;startSize=8;endSize=8;curved=1;entryX=0.5;entryY=0.5;entryDx=0;entryDy=0;exitX=1;exitY=0.5;exitDx=0;exitDy=0;entryPerimeter=0;" edge="1" parent="1" source="MyHgY1KvTSDvr6oZdd5r-27" target="MyHgY1KvTSDvr6oZdd5r-28">
          <mxGeometry width="50" height="50" relative="1" as="geometry">
            <mxPoint x="49" y="421" as="sourcePoint" />
            <mxPoint x="211" y="508.5" as="targetPoint" />
          </mxGeometry>
        </mxCell>
        <mxCell id="MyHgY1KvTSDvr6oZdd5r-32" value="" style="endArrow=none;html=1;rounded=0;fontSize=12;startSize=8;endSize=8;curved=1;entryX=0;entryY=0.5;entryDx=0;entryDy=0;exitX=0.5;exitY=0.5;exitDx=0;exitDy=0;exitPerimeter=0;" edge="1" parent="1" source="MyHgY1KvTSDvr6oZdd5r-24" target="MyHgY1KvTSDvr6oZdd5r-27">
          <mxGeometry width="50" height="50" relative="1" as="geometry">
            <mxPoint x="-242" y="526" as="sourcePoint" />
            <mxPoint x="-82" y="438" as="targetPoint" />
          </mxGeometry>
        </mxCell>
      </root>
    </mxGraphModel>
  </diagram>
</mxfile>
